<mxfile host="Electron" agent="Mozilla/5.0 (Windows NT 10.0; Win64; x64) AppleWebKit/537.36 (KHTML, like Gecko) draw.io/24.7.5 Chrome/126.0.6478.183 Electron/31.3.0 Safari/537.36" version="24.7.5">
  <diagram name="PÃ¡gina-1" id="CZ-TV7Wtav-NyqlwMxSN">
    <mxGraphModel dx="607" dy="367" grid="1" gridSize="10" guides="1" tooltips="1" connect="1" arrows="1" fold="1" page="1" pageScale="1" pageWidth="827" pageHeight="1169" math="0" shadow="0">
      <root>
        <mxCell id="0" />
        <mxCell id="1" parent="0" />
        <mxCell id="NGPKJmTEaGrtDhj0HMpX-2" value="" style="shape=image;verticalLabelPosition=bottom;labelBackgroundColor=default;verticalAlign=top;aspect=fixed;imageAspect=0;image=data:image/png,iVBORw0KGgoAAAANSUhEUgAAAbcAAADHCAIAAAAVoIrJAAAgAElEQVR4Ae2d/38TVbrH+QP85f64P2VwAosIF3eVK4JLLItfQEX2XkmL3nVRFEyxoG6LmBQU0F2a1ZbXVRopV9oVutctlIm6sGuzkO62xOK20CLt0lErtiGV0qS0IdPStDN3k9NMJ5NJMkkmyZn04eXLzpw585znfJ6Zd863mZnFwT9QABQABUCB6ArMin4IjoACoAAoAApwQEm4CEABUAAUiKUAUDKWOnAMFAAFQAGgJFwDoAAoAArEUgAoGUsdOKYCBVhvX5vdWn2govxADWU/3+dlVeA0uKgmBYCSaopWbvk65mqq3KybT2oI8vbHt9d1TuONvdF1fO9Wk+VYnaX0pb3Hu25EAR/rd50xr1u+uvhwY88Iy45813i45JHl+rIzLn+UM3JLQahNZhQASmZGZyhFpIB/oOndzSUHTzV/2db8yf6N95OatRVtw8FMo71U8eLHD3WNsxzHjncdWvPTYmvvqOh8juPYgca3Vi8gV+xvY3gmskzb/pWaBY/tbRzg0yLPhBRQIBEFgJKJqAV5lVLgVsehNz7tDbX4JunqtZrFW0+6AuZ9LWVLFqytvjyJypq8XLNmwdJ9LT5x0cNt5WtJzfzpnNP55wuYKz4N9kGBRBUASiaqGORXXgG2p7bgp9tPucY5jvU1712kWV5qvx4q5rrdtJxcsLfZF944nOg4sIwkNSv2NHtCOdFfT/PuFaSGXP5+x0T4AdgDBZJTACiZnG5wlnIKsJ62yr2VrYNBCo59V/ssqVlV0eYNFeBtK19Fap6t7RkLpQT/9lMvaIjwnOg4yk+QG6n+sBNgBxRIUgGgZJLCwWkKKDDa0/SH90qf1s3VzM976X9b+sc4DjEukpLClGDJnoYSbSxKzituEDUyFXAYTMxIBYCSMzLs+FQ6sI7ndN2+DYs1xLzNlIuVTcnAeOV8UrO0pOFaeG2uNRQvlRivDM8Ee6CAfAWAkvK1gpxpU4D9oaHkfvL2V08NjPbVbQ7vRyNubj7WNx5e/LiL2jZPM+fhqs6w8ceJzqoH55DabdbAKCf8AwUUUAAoqYCIYCJlBfz9VBF5xy778ISs2Rv/4BWnlx29WLVu0dxNlEswr8P21m24fZG+6uIo63VeGfSn7BkYAAWAknAN4KDAKF39zL27m0Y4jhu2l94hWN8T7FkvNNnRWsopX30t5h2nBljW7zq5fYnhWO+tUB1u9dYZlpacdPlZduDU6+bI9UOhjPAXFJCtAFBStlSQUTkFJns/2/GMYe8fWgcCSyYnvN/Wb883Nw2glp+Prt4wT19Do1Xl3TUF2g013aLlkkPnzEUl75RXlJtLn15ZUN011bse76rRr/ylyVxRXv5ucZG5ZUg5l8HSzFUAKDlzY5/FmrMDfzevW0xqyLsfeeqFjVt3Hvgz7RWMLvpdLVU7Npd+cKzug52bdlS1uCI6zqyvxbw0sBIo+N89u+2eCY6b8Nh338snLjGfEy2xzGKFoWg1KwCUVHP0wHdQABRIvwJAyfRrDCWAAqCAmhUASqo5euA7KAAKpF8BoGT6NYYSUlOAYRhJA9HSJTNDIiiQtAJAyaSlgxMVVoBhmKNHjkQatVRaaJoWpbvdbpPRKEqEXVAgHQoAJdOhKthMWAGGYQoNBlJDiIDodrtJDREJREulJTJzwqXCCaCADAWAkjJEgixpVoBHZJ5OJwIioqEIiAF0ErMl6ZlmT8H8TFQAKDkTo45VnXlEOhwOK0UJgYgakuayMhE9ETqhOYlVHHPYmRykJMMwNPxTjwKlJhOpIRwOB8dxDMMIgYg46Ha7hfREDUlLpUWUGd2l33zzjXqqPkM9dbvd6kJqDlKSpml0p5mMRvgPfwV2v/GmcNKGByLfkBTRcwqdg4Mcx/GZ0V2HDm3buhX/Ws9YDwv0eurECZYVvKEEe2TmJiVFY1vYRwEcnFaAbyGKOtQIiA6Hg9QQlkoLOoHPzHEcys8fmrYIWzgp8InVaqUooGSWY0LTNFAyyzFIrXgERNHkDAIienDbHWxIokJQZpPRKKRnauXD2WlUACiZRnHlmwZKytcKz5w8EEWrghAQzWVlQrf5zNCKFMqC7TZQEovQACWxCENqTlgpKrJDgIAoQicanQREpqZ35s4GSmZO6xglASVjiKOWQwzDOJ3OSG8jEYnmdiJzQgqeCgAlsYgLUBKLMIAToICUAkBJKVUyngaUzLjkUCAoIFcBoKRcpdKaDyiZVnnBOCiQigJAyVTUU+xcoKRiUoIhUEBpBYCSSiualD2gZFKywUmgQCYUAEpmQuW4ZQAl40oEGUCBbCkAlMyW8mHlAiXD5IAdUAAnBYCSWEQDKIlFGMAJUEBKAaCklCoZTwNKZlxyKBAUkKsAUFKuUmnNB5RMq7xgHBRIRQGgZCrqKXYuUFIxKcEQKKC0AkBJpRVNyh5QMinZ4CRQIBMKACUzoXLcMoCScSWCDKBAthQASmZL+bBygZJhcsAOKICTAkBJLKIBlMQiDOAEKCClAFBSSpWMpwElMy45FAgKyFUAKClXqbTmA0qmVV4wDgqkogBQMhX1FDsXKKmYlGAIFFBaAaCk0oomZQ8omZRscBIokAkFgJKZUDluGUDJuBJBBlAgWwoAJbOlfFi5QMkwOWAHFMBJAaAkFtEASmIRBnACFJBSACgppUrG04CSGZccCgQF5CoAlJSrVFrzASXTKi8YBwVSUQAomYp6ip0LlFRMSjAECiitAFBSaUWTsgeUTEo2OAkUyIQCQMlMqBy3DKBkXIkgAyiQLQWAktlSPqxcoGSYHLADCuCkAFASi2gAJbEIAzgBCkgpAJSUUiXjaUDJjEsOBYICchUASspVKq35gJJplReMgwKpKACUTEU9xc4FSiomJRgCBZRWACiptKJJ2QNKJiUbnAQKZEIBoGQmVI5bRg5Qkr1544afjVvTqBlYb1+b3Vp9oKL8QA1lP9/nTcFW1ELgQIYUyK1oAiUzdNnELkbllBwbaKvd/sgr1n6/sJqst/P4zldKD3587OCurTuPd3knhEcF26zfdca8bvnq4sONPSMsO/Jd4+GSR5bry864UsGuoADYlKuA39VyqOSxu0hSQ5B36Xce75z+sWJvdB3fu9VkOVZnKX1p7/GuG1F+xoLR1OtWFx+289FctVxfdvrqeJQz5DqXtXxAyaxJLyxYtZSc8PY01uwufPJn80lNURgl/T3WopVrqi6NB+rp66p6anER1StFPXag8a3VC8gV+9sY/i5imbb9KzULHtvbOMCnCfWC7XQowF5vKVv/WNH+Woo6Vv2bF3TzSc3KnWd+mAyUNdpLlfzH44c6b7Ecx453HXri7mLr90ykF+xA49uPLiRX7G/18ZELRPNBYsFje+3XgrYiz8I8BSiJRYDUSsnxHnv9uX6/v58qCqck62sxL9U8XUOPIn0n6eq1mlVlLUMRcg+3la8lNfPXVl8Ou4MmL9esmU9q1la0DUecAglpUWCy5/+2mL8YmYIbO9pR+ThBzCv+3M1ynK+l7L6Fa6v/OdUdmLxc88TCpfu+uCl2ZLit/Bdazfy1h0M5UYZA/ju1mrUVrTfEZ6hhHyiJRZTUSskp8SIp6WnevYK8Y5d9OIS+YXvpHcSi3c0+kd4THQeWkaRmxZ5mT/iRoAUNufz9jmgd9fD8sJeiAuzo11+eHxCMmYy1lC2aPfelP11jWV/z3ruI5aVn+Jb9dXupTrtgb9NNvsEYLH2i48D9Wq1mxZ6mAFoF/zzNe36u1ZDL32sXFCA4jvcmUBKL+OQaJdlvavULyLvK2/h7wt9WcRdB6mu/C797uH7qBQ1BalZVtHnDI+FtK18VGB3bSPWHH4C9DCnga96z8Kcb6r6d5Ma+q31OS6yqaB0JFe1tK1+t1Tx79NupvsJUej+1iZgdiOZ0TnQE5SfIjSdcogsgZBHnv0BJLKKTa5RETIykpDAFCe9pKNHGouS84gZRIxOLgOW+ExPDzb9ZtuKdluEJjkOME7IvMiWoiKdh+5xYlJzqv6tNPaAkFhGbuZScGn9cWtJwLTwS1xqKl0qMV4Zngr00KcB6z1fmP7O/1RNs+UUyMTIl6MjU+OPSks9/CG8yXmsoWSYxXpkm75U2C5RUWtGk7OUaJdkrx55ZJNHjfqauL/zu4bhxF7VtnmbOw1WdYeOPE51VD84htdusruAkeVKqwklJKsD+0LR302snvw+Nl4z31b0o1ePeXNd7K7yIcRf18h3EnIcPXgqdGzw+0Vn10Fytdht1VZQ//Gxc94CSWEQm1yjJyZu98Q9ecXrZ0YtV6xbN3UQJR6zY3roNty/SV10cZb3OK4NhtxwWEctdJ9gbnTU7Xq65OL1SkpM3e8NHU3/XjzeduBqat+M4ju2te5a8S3+wg1FnNIGSWFzuOUfJyWH7roXilUDLS+3Xw+T2tZh3nBpgWb/r5PYlhmPTDZNbvXWGpSUnXX6WHTj1urlFPDMeZgV2FFRgzNXwmxcPnJ9G5PiVs1+62GH7zvl3hq8EunOh6UzYynIUzclANF+7z3Ds+7GQW7d66wqXlZy8Oh6IptHcIpoYD2XD9y9QEovY5BwlOW68q0a/tKC6C60qp6s3zNPX0OKnL4bOmYtK3imvKDeXPr0ylBmdu/KXJnNFefm7xUVmiVWWWEQt55zwDzSVPfH4XqqltQ39a/3biT0l+wNLVn109bN36Gu60ary7pr1czbUXBYtlxw6Z94qiGbnVO96vKsm/0FBNNFYp5rEA0piES3VUtJ/vcNmrasseWQBqfnJk6aqY5Tt4nXUP2b9/Y6q4qKdVR8fq9q1ufjDln6+ccFrjhafE4EVPxqCvGe33TPBcRMe++57UYqGIJeYz00/xcGfCBuKK8COdv9h893BZxN58TUEOfW8Dcf5XS1VOzaXfnCs7oOdm3ZUtbgihkEC0VxGTEfzjNsfjOaeJXziEnPLTUFXXPFKpMcgUDI9uiZoVbWUTLCekB0UUKECQEksggaUxCIM4AQoIKUAUFJKlYynASUzLjkUCArIVQAoKVeptOYDSqZVXjAOCqSiAFAyFfUUOzeXKOl0Om02W6Q0JqORYcTv2nI4HFaKiswMKZgowDCMpdIS6YyVohwOhyidYZgthYUsK35yQJRNdbtAyeyHzOFw7Nm955GHHrLZbJEcyb5/iXjgdDrzdLo8nU5UEZqmSQ0RCcQCvT4ycyIFYpeXYRibzWalKCtFud1u7PxL0CFzWRmpIc6ePSs8j2GYFQ88UKDXi4BopSgtMVuUWXiiGrcdDsdLhVuee/bZhoYG0VWNc3Vm4excor5ZKi1T62CCyy8K9Hr13lputxshMhKIJqOR1BAiIDocDlT3SHomKiMm+dGPhDCgkQ0uTFyV4wZ/cYqAiGgooidCJ6khTEajiJ5yysIzzweWD7SBtxxNLW8q0OsHBwfxdFXkVe5QkscEHwZ0kYkqrIpdhmEKDQZSQ6DRAyEQUUMStUqEQEQNSZPRKMysispGc7JArxeGEm2r9GcPIdJSaXE4HMIWIqIhipqQngidKMrd3d3RJFJROqq4KKDG119XxW9A7lAStbBEYUCgoVX176uvvnr+uY2khkBNJ1H/mucgv8FxHJ+H3xDeP1evXlWVAAFnbTZbZChJDWGptKiuLvt++1vkOQqKsH+NaNjd3S3sX/Po9Pl8Kx54QNScVGM0aZp+acsWyYACJYW3atq3o1HSZDSq7r/Xtm8X9i55IAohKNzmM3AcJ9xG0wXrnnzyte3b1SXClsJCyZuqID9fXRUxGY2733hTOGnDA5GnIcuywm0enRzHCbc5jkMtsk0vvKA6EVY88IBkQIGSaSejsAB+3EcYjDydTphHpds8EIUE5IHY3t4uHLvkM/PdduEtqhYFnE6nMI78tvDHQy11EfmJgFig14sIiHYvXLggbD8K6YkQWWgw+Hzqe2OJaFASBTRPpwNKii6P9O5K3lfCkbv0Fp9m64iPQhryHe3IeXCUGY1sHj1yJM2upct8ZOcgZ4ZcERBFkzMIiHk6HakhhGORKPORjz7SErNVikiO49xud2RzkjpxAiiZrvsnml2apvkh/zydLmcQKQSiaP0EQomopqg5yY9sRpML83SGYYSgLNDrnU4n5j7LdA8BUURDvn8tGojkM6sXkUgWmqbX5+fzrUi1IJLjuNyZveEv0Kampi2FhfxuzmyYjEYRDRE9JVtYJqMxBzqnqA2ypbCwqakpZ+KIKmKlqEKDQdSSQkAUNiSFmdXY0Y6MWvXhw5ZKi7rqkoOUzKVnb4QXmdPpFDUk0VGapoXZ0LZkzshsqkgxGY2SdVSF89GcZBhGslKSiUzwXzRT6kqHZ2+wiFeuUhILcVN1YvLv//B+LPq+dDybOUnJeJXO2eNASSxCC5TEIgzSTkzU//XG74Qf5ZHOFpYKlAyTQ+U7QEksAgiUxCIM0k4AJaV1mTmpQEksYg2UxCIM0k4AJaV1mTmpQEksYg2UxCIM0k4AJaV1mTmpQEksYg2UxCIMIScGvh65rd4zK9p/n95sj/eFKxiXDGmZC3+BklhEESiJRRiknYC2pLQuMycVKIlFrIGSWIRB2gmgpLQuMycVKIlFrIGSWIRB2gmgpLQuMycVKIlFrIGSWIRB2gmgpLQuMycVKIlFrIGSWIRB2onJ9n8yp4cT++IVzN5Ia6nOVKAkFnEDSmIRBuWcAEoqp2X2LQElsx8D9Jock9GIhSvghBIKACWVUBEXG0BJLCIBbUkswqCcE0BJ5bTMvqUPLJbDH34oemVc9t2K6QG8OS2mPHAQAwWAkhgEQTEXVj388HMbngVKKiZocoagLZmcbtieBZTENjSJOvaJ1Yo+yX327NlEz81ifmhLZlF8KFqWAkBJWTJhnwl9+sZkNBbo9QV6vYpeVw6UxP7imvEOAiVz4xJAn1Hs7u5ub2/XErPhuzfZDCv0uLOpfhrKBkqmQdRMm6RpWkvMrjxQiUYkS00mLTF7cHAw034kVV7utCWdTidN01aKslRaCvLzrRTV3t4u+RWRpISCk7KmAFAya9IrV/CWwsI8nY7vZbvdbi0x2/j666qYxlE3JRmGcTgc5rIy9BVj/tv2oo1Cg+HokSM5851S5S5ddVgCSqojTtG9tNlsWmJ2Q0ODMAuayblw4YIwEc9ttVLS7XZbKi38t30tlRabzUbTtNvt5oWmafpfIyBHjxwpNBhQzlS+v3rhh3FmPLFH63hPYCMVBYCSqaiX9XPR53MlP6u7Pj9fFdM46qMkwzBHjxxB1DOXlbW3t8u5Dtxut5WiUJPTZDQm0a58+5z3wg/jcsqCPMoqAJRUVs8MW+MnbSLLdTgcqpjGURklnU5ngV5PagiT0ShsNkYGQDKFYRielVaKkswTLXHxZ0O/v8REOwrp6VMAKJk+bdNtWTRpE1lcqcmUp9NhPo2jJko6HA5SQ+TpdDHbjxOe5vd+XUdPRAYklOJ2u01GI6khzGVlDCMLfH3DE7PqPc+fGQ7ZgL+ZUwAomTmtlS4pLgSdTqeWmF22bx/O0ziqoSRCZKHBEK8J6e+niu4ub/PHizfqthcaDHJA+XnPGPpyi5uJ95WWeOXC8UQVAEomqhgm+WV2qGuPHtUSs7u7uzFxO9INdVCSR6QMosmlJMdx8s2WNI8gSjb33YoUEVLSqoDJaPzqq6/SWgQYV1wBNGlToNfHbSTKz6m4kzINqoCSNE2TGkJmo4/jEqAkx3E2m43UEJZKS2y9+E8AvnfhZuyccFRxBXa/+ebzz22U8QOpeMlgMHkFEmohymx1Ju9NamfiTkmGYfJ0ujydLl5Hm5chMUpyHIdWFMUY6+x2+3lKPvH5Db4k2MiMAvx4dBIrEzLjIZQiUkAw2ugfOPnrHxOzRUuYp3eXvdfhDyywizuCKSoik7u4UzIuwgJiDZzcejsxrbtGtL32QIcvhqYMwxTo9Xk6XbTWyu8vMTwlZ9V7+oZjzAzFKAcOJa+Aw+FAP5YAyuRFzOCZSSAv7mx4Bt0XF4U1JZ1OJ5qJFnsdaz/htiR6vXmMfvfzZ4aFlPy8Zyyi/MkvWofzGplvgZ8R0iiV4HQ6AZRKiZlWO0l3n2OsrEyrw3GNY01J1JCU3ddGlU2GkhzHobVBkmWVNI+g2Ru0Ud89KpaVnfiscei2UzfbYdW5WBpl9tEbTNA6MJvNpoxRsJIGBRiGSfqJmmhP6aTBzcRM4ktJt9sdo30XvZZJUhLNEcVYaj6r3hO9UDiSLgWEfLRSVLRRkXQVD3YTVMBKUVpidtJPZ0s+8Z2gC8pnT4KSEzeHRuKuRkzdUzT7nPg4VJKU/NfwZqHBUKDXR/McKBlNmTSlZ4GPrLevzW6tPlBRfqCGsp/v86r/uf2x/pbD2x+9Jzhqv/jJ0mOdI/yo0IS36/gbRbuq6j6uMr2y6/ilkenaTnha3lv/6GvUt7EG9CPjrsibfkRvD4osJfMpCVLSf62tdsfqTVR/mKcBuXe9xMvdGX5x+a93UO8XrZ4bmFRZ8Jjpf63NPXyXlb3e8enh0ie1xNxHtv++bWA6TPGYFVZ+2M6kt+PEQXtvEou/Y3M5CiUn2y+ObPjrjbvrh7ZfSaLMMNdhByngdDrRAEieTpdg+3HC0/zbvLumHypgvZ3Hd75SevDjYwd3bd15vMvLM0IkNut3nTGvW766+HBjzwjLjnzXeLjkkeX6sjOu4AysKLdKdic8LeVPPPry+7X11roP921cOVdD3lt62h24Tll/L/Xy3U9Vdd4M3HTjlw6teXDbiW9DI0bjrpOv/QdZ8H77DeEtGbfWirw1EsNpHNmUDFw3NXsK1+luJ8iNQkoG5N7206equoI/O+OXqh5fuY3qETc2mdaKFXNIzU821PWIdR+2ly7YUNMd9qvFMAypIY4eORI3MApmQH38aMNeUSj5rzUME/Wnh2ZR3tORkzoKOjeTTAkft0/owRt24PPX7iFJnpL+HmvRyjVVl4I3v6+r6qnFRVSvFPXYgca3Vi8gV+xv8/GXJ8u07X+QWPDY3sawX28VBWLy69ot/3NuOHQvjl6ofPROrXbH524/xw2dK1utXVPdPYHqO0rX/Lf2PnPLzeR/6fk3kKeuEG7TODIpyY73/O1Ei8vP9Vk3/iSckkPn9q0i11TTU/KO0tVPk0vM56avNiTauIvaNk9DkI8f6gp7/9iEu8G0vPSMh784g9nRKGGMNYypR0LSQp5OZy4rkzwUlZLjt976xPOj5jHhM95DTp/FmfwFJ+nATEsUsdLhcMRRwN9jffnZX65fHKIk62sxL9U8XUNPdV0m6eq1mlVlLUMRdobbyteSmvlrq/8Z1tScvFzzxJ2kZm1FqzC2EWdjmzD67dm2a4Iba/hc2cPa2189ec3P+Zr3Lpy90HQm1FacHLa/8e/Eij1NbkH+BCqWyqRNZDH8F3LiPrcTeW46UmRSki86gpK+5j0LiIUme+g6mhy271qoWbGnOWKuY6o5+dCe5ulXQHKTX9fmP3Wgw8sXgDZQ51dyxlmUU9ldk9FoMholbUaj5Jjr5iJxdzvQuvy3xtFrkoZmTCJ7a/yjxqHb6j1zTjPdwQbN5I3R56yetZf88n9AhKws0Oujs3K0l9r9St35L8pXhSjpad69grxjl304VNqwvfQOYtHu5rBuS6Az0HFgGUkGLlrBlRkIk6d5989JDbn8/fZQe0zVwfM07/n5j3/1x+8nObandj0x++53W/kWi7+t4h5iYcHR7uGOI69t3vDkz+YLGBq/1mjSRsEvI6J39CpoMH4doudIlZJsT22BhhC+XcLfVn63ZkFB7TcRP0pjPbUb52qIeZsp19SxQKfm4endaTetFEVqiOn9TG2hV2BIlhaFkmz7+RuzTox8JnhwcdLte8Lqua1++CNRC1nSbs4msr09zOkR/8c2z6z6Gx8G2yiTbt9D9R7yH7cShQ7DMOayMvTgQKHBEKEZO/7t/xlepnr93jaekuw3tfoFIWIGz/C3VdxFkPra70SXZj/1QmDQfFVFq+jXOmhNExhickUUqboEdrjprft+Yf5icJLjgkyMpCRK8buobT8mlpeekTvSkKam3/r8fOFHILIoeKqUDDIxkpJhKXz1WM+ZnfeQpGb91CAme/VU0bqIH/BA9mxRMka50pRk/R+e8gSajSzb72WDdx/bfv7mp9dGXzzhub99PKwHxwsxczaC+kwP2jJj20541v9TamgwuibxJ7tHO2te3HPKNcZxAkoiJvJjlP9aExuZggr1NJRoY1FyXnGDqJEZ3Vlcj7BDHZXP/aLiHGpYx6RkcMhy/q4zN4QX7+A5y0fnojx19juzWUvM7uvrU7byaBrnyEcfZb3fnVFKchwaACLv3d00wrHj3TXr82tovtEv0DgGrQS5lN+MUa4kJdkh5ol6T37X+GXa9z9XJgJNpLGxN78YG+YmTzcPzfr0ZqvwSlPeX9wtsiOjG+o9//b3MUQZdpjJPzFSL1hyErsC8fkYON/bWfXyjgbUP0mKkpOXa9bMJzVLSxp+CPfnWkPxMonxyvBMatjzDzT97qntJ6+G7jW2r26DRI/7rl/98bvJsdb9y7T/Pj1kGagf66JeJO/b9ieJsXZFVv9E03B9fj6pISYnQ2Mm0fKlOT1VSrJ9db+S6HEv+lXdFVG3BlUkILeWILXbrK6Bc/v0L1LfS2aLQau0ChKjXElKooG22z4bsTiDiOQ4d8/Nd1yBoEqNV6bVdxyN+103yXrPE5dQ45G92j2y9NwtUbdW0m95fAzcv0xH5Vp9+eetbcF/zbXFy8kFxbVfnr/Ye7HumUUSPe5n6vrE1xyaWpzzcNWlsKGAic6qh+YGrtWroRUykr7injjh7TzyyrYjgpWSXPTZm8GxjgMPE0vCgThK1zx3z0/mzM0/+u3UnHhYndM0Jc1Pmqu+LcnJn71BwrLX7KUrSc38x3a89vyD+9sY8QWLcsWgVVh8lN6xVFrydM/yV2AAAAp0SURBVDpJq5KUjMg5Ud/s60R1Ysctf/Lcdno0B4a0IqopN2H4ivdHoakt7wBjaGQuhd7Pyd7yU+dvftRzy3Z+ZMulcSE6aZpGXyjK0+miLcwKeRB4iEDyRSd3l//FLmf2xj94xellRy9WrVs0dxN1VXA9sr11G8hF+qqLo6zXeWUwDKCh4rH/y/pdn7/xYlXH9GJy5ruz5/vZ6/ZSnXbN4bCVQIFe9k26+r+1c4pPXhv1/jAwtfD5VrvlzU+/+lPxHYT+YKd48QrHcekYl1R20jzFMKXaluS463bTcvFKIOHEothBdrzr0JrAYPmiguquaL/R6GVZiT94Iy4s0f0k5riFRUy6feuamXOuW63B/z5uHuInLoTZZs42e2v8w9NDs6xD62zDL/5jtDuESG7C//GZ4bedkwEoeUefOTHyl/Ava8ie2hZpKehxc2i5hWgl0PJS+/Wwc3wt5h2nBljW7zq5/T7DsV7exVu9dYalJSev+ll24NTr5hbxzHiYFUx32IHGt9es30M1oZZ2W9uXTSd+a9jf6mOD411zNtRcRqvKu36fv6yguvPW5De1+Qu1z/zh0uXP9lc2ugI99MmR5vfetl9nh+0752vvf/cfo4IfEr7aMMfNS8FxEuslA3IXaEPLwse7avRLY+AvYIv93rp5MXmHscEdddAOrZeMvuxD6JKS2zGeHJfRlgzOd9d7hC8QmlXvWXp+nL/zlPRVzbaufT3yIxuDRlsmrvvuj7ImP3FWCinJcWFXo4+u3jBPHzkOPnTOXFTyTnlFubn06ZXTl27g3JW/NJkrysvfLS4yS6yyxD4Ao121m3+mFb9IcP3BTrQgY6y/5cPtm4OPzJUWlVQ5AkycvGI1/Ex7+0NbD54NIpLjuGsNbx5sG53kuJG2ijVa8azOtAjypqQHmiveOkZH6UKGjKWjcRqyncxf2W1JduDin6ljB0tW306Q2nWlh/9o/XPH9alflYDcJZum5e6PM4fJ+lre+c/y1vDWg9j7GMASZ1VoPzaaZVBSIT9y38zEX/4+9NBFtGqS7b44PK95anpHsuqJsDKckhzr73dUFRftrPr4WNWuzcUftvRHPiCFFp+H3kl6z2574Md7wmPfvYTnyxLzuWCTS9K93E5kXZ+WHupEN/RE16FHiHs2n/hecjJF3pR03yfP/1dFa5z5uzRNmicdKdmUTLqEZE80l5VFGyJM1mSc89BiyWhL2YGSceRL4HCAks90B3oS7OjYGzbvX+PcNZxoMieBoiBrSgqM0jWv7qw7O9Vh//KPpfdpBaOZYtMy6BafkvJoKy46rfv4UhINTWbyIcUCvV5qxfKU/kBJBS9E74Dv+UafvXf0YKvvbzERKeIjvDlNwSjEN3WrvfLBuRF99v98v106ZjJ6yvEpKa/nHt93BXPgS0n0xZtozwsqKAEyhaAcYyQUKKm45rENAh9j64Pn0XjTOHEoidWDibzC+FKSfwKHpmne3fRtFOj1MV4uyXEcUDJ94ossMwyT7JvTRJZgN9MKRKzgmZD5dbA0rShSpP5YUxI1J2PDSxEV0Ms1YjQkgZKK6CzfCGray/68sHzDkDPtCsRcDR6rLZmm1empVxhrSvLfy47xoYXUJXAGPzsVY0QSFQFtydSlTsgCgDIhubDKHP11vFEpieHLd3lJcack/92uWNM4KXxplmGYQoMhT6eLu4IdKMlfNBnbAFBmTGplC4r+cHdUSmL4IQdeExVQkv9edlyQ8bWSuYEQSWqI2H1tZA0oKVNVZbPZbLZ7Fy/+9ptvlDUL1tKtQJTPhElTEs+PgvESqYCSHMehTrGcFh9fsbgbPCLT2p2P6wZkiKvAr199NTMzeHE9gQzyFYiYxkGnDl08dsTex3/4KpCI7Qdm+cqqg5I8KGW2+/jqRdtwu92FBkPmP60TzR9Ij6FAQp++iWEHDmVYAYfDoSVmUydOxH6pD7aTNrxcqqEkWiiA0GYuK0tldbHNZkOvnJHT0eaVgo1sKQCUzJbyqZdbajLl6XSDg4PRTOE8acP7rCZKosY5eo4w8W+QBqpM0zTibKHBoPgoJ68pbCirAFBSWT0zac3pdGqJ2WX79kVrTsbFaCa9jVaWyiiJqiF8KsNSaYk1/R08we1222y2Ar2e1BAIr9HkgHQMFQBKYhgU+S7VHj2qJWZ3d3dHniKzSx55YoZTVElJpBFN0/wXo0gNYTIajx45YqUom83W3t5upSgrRZnLyhAcSQ1RoNfbbLZUuuoZjg0UhxQASqr6SkCTMwV6vag5GS0dw8qqmJJITYZhHA6HpdKCutKi11bn6XQmo9FKUdC/xvDik+kSUFKmUNhmk2wzxmhj4lYR1VMyUtCmpqYthYWR6ZCiUgWAkioNnNBt0fhj3PFK4blZ385BSqJRy6wrCw4opQBQUikls2hHNJctgmYWHZNTNFBSjkqQJ5sKACWzqb5yZfPrIiU74MqVo7wloKTymoJFZRUASiqrZ7as8c/YoLcU+nyq+d4aUDJb1wyUK1cBoKRcpbDPh57XJjXEhQsXsHd22kGg5LQWsIWnAkBJPOOSnFf3L11aaCgUrQpKzlTGzgJKZkxqKChJBYCSSQqH5Wkvb9v25ZdfYulaVKeAklGlgQOYKACUxCQQirhRajJJPoejiPE0GQFKpklYMKuYAkBJxaTEwBBQEoMgBF9pkbEvL2JR4Vx3AiiZSxEGSmIRTVhVjkUYlHMCKKmcltm3BJTMfgzQ69GgLYlFJBRyAiipkJBYmAFKYhEGaEtiEQblnABKKqdl9i0BJbMfA2hLYhEDgRMDX4/cVu+ZFe2/T2+2TwpyS20CJaVUUWsaUBKLyEFbEoswKOcEUFI5LbNvCSiZ/RhAWxKLGCjqBFBSUTmzbAwomeUAoOKhLYlFGJRzAiipnJbZtwSUzH4MoC2JRQwUdQIoqaicWTYGlMxyAFDx0JbEIgzKOQGUVE7L7FsCSmY/BtCWxCIGijoBlFRUziwbA0pmOQCoeGhLYhEG5ZwASiqnZfYtASWzHwNoS2IRA+WccLvdWwoLm5qalDMJlrKpAFAym+rzZUNbkpdC1RsMwwi/t15oMMDnglUdUOQ8UBKLIAIlsQhDyk4IEYk+s56n0zEMk7JhMJBNBYCS2VSfLxsoyUuh3g23243IKPq/zWZTb6XAc47jgJJYXAZOp1N0a8EuKAAK4KNAX18fFqSQ7UQOvqtcdt0hI74K0DQteVdbKQpfp8GzHFUAKJmjgVV/tQr0+khQut1u9dcMaqAyBYCSKgvYzHHX6XTm6XRCUDocjplTfagpPgoAJfGJBXgiVsDtdttsNkulxUpRNE2LD8M+KJARBYCSGZEZCgEFQAHVKgCUVG3owHFQABTIiAJAyYzIDIWAAqCAahUASqo2dOA4KAAKZEQBoGRGZIZCQAFQQLUKACVVGzpwHBQABTKiAFAyIzJDIaAAKKBaBYCSqg0dOA4KgAIZUQAomRGZoRBQABRQrQJASdWGDhwHBUCBjCgAlMyIzFAIKAAKqFYBoKRqQweOgwKgQEYUAEpmRGYoBBQABVSrAFBStaEDx0EBUCAjCvw/kIJ8wgV/nWYAAAAASUVORK5CYII=;" vertex="1" parent="1">
          <mxGeometry x="201" y="93" width="439" height="199" as="geometry" />
        </mxCell>
        <mxCell id="NGPKJmTEaGrtDhj0HMpX-6" value="&lt;i&gt;&lt;font color=&quot;#00cccc&quot; style=&quot;font-size: 16px;&quot; face=&quot;Helvetica&quot;&gt;&lt;b style=&quot;&quot;&gt;v&lt;sub style=&quot;&quot;&gt;1&lt;/sub&gt;&lt;/b&gt;&lt;/font&gt;&lt;/i&gt;" style="text;html=1;align=center;verticalAlign=middle;whiteSpace=wrap;rounded=0;" vertex="1" parent="1">
          <mxGeometry x="277" y="155" width="40" height="30" as="geometry" />
        </mxCell>
        <mxCell id="NGPKJmTEaGrtDhj0HMpX-7" value="&lt;i&gt;&lt;font color=&quot;#ff0000&quot; style=&quot;font-size: 16px;&quot; face=&quot;Helvetica&quot;&gt;&lt;b&gt;v&lt;sub&gt;2&lt;/sub&gt;&lt;/b&gt;&lt;/font&gt;&lt;/i&gt;" style="text;html=1;align=center;verticalAlign=middle;whiteSpace=wrap;rounded=0;" vertex="1" parent="1">
          <mxGeometry x="410" y="140" width="40" height="30" as="geometry" />
        </mxCell>
        <mxCell id="NGPKJmTEaGrtDhj0HMpX-8" value="&lt;i&gt;&lt;font color=&quot;#ff8000&quot; style=&quot;font-size: 16px;&quot; face=&quot;Helvetica&quot;&gt;&lt;b style=&quot;&quot;&gt;v&lt;sub style=&quot;&quot;&gt;3&lt;/sub&gt;&lt;/b&gt;&lt;/font&gt;&lt;/i&gt;" style="text;html=1;align=center;verticalAlign=middle;whiteSpace=wrap;rounded=0;" vertex="1" parent="1">
          <mxGeometry x="540" y="140" width="40" height="30" as="geometry" />
        </mxCell>
        <mxCell id="NGPKJmTEaGrtDhj0HMpX-10" value="" style="endArrow=classic;html=1;rounded=0;strokeColor=#00CCCC;" edge="1" parent="1">
          <mxGeometry width="50" height="50" relative="1" as="geometry">
            <mxPoint x="262" y="169" as="sourcePoint" />
            <mxPoint x="262" y="129" as="targetPoint" />
          </mxGeometry>
        </mxCell>
        <mxCell id="NGPKJmTEaGrtDhj0HMpX-11" value="" style="endArrow=classic;html=1;rounded=0;strokeColor=#FF0000;" edge="1" parent="1">
          <mxGeometry width="50" height="50" relative="1" as="geometry">
            <mxPoint x="368" y="192" as="sourcePoint" />
            <mxPoint x="401" y="192" as="targetPoint" />
          </mxGeometry>
        </mxCell>
        <mxCell id="NGPKJmTEaGrtDhj0HMpX-12" value="" style="endArrow=classic;html=1;rounded=0;strokeColor=#00CCCC;" edge="1" parent="1">
          <mxGeometry width="50" height="50" relative="1" as="geometry">
            <mxPoint x="300" y="192.33" as="sourcePoint" />
            <mxPoint x="333" y="192.33" as="targetPoint" />
          </mxGeometry>
        </mxCell>
        <mxCell id="NGPKJmTEaGrtDhj0HMpX-13" value="" style="endArrow=classic;html=1;rounded=0;strokeColor=#FF0000;" edge="1" parent="1">
          <mxGeometry width="50" height="50" relative="1" as="geometry">
            <mxPoint x="440" y="190" as="sourcePoint" />
            <mxPoint x="440" y="215" as="targetPoint" />
          </mxGeometry>
        </mxCell>
        <mxCell id="NGPKJmTEaGrtDhj0HMpX-14" value="" style="endArrow=classic;html=1;rounded=0;strokeColor=#FF0000;entryX=0.636;entryY=0.538;entryDx=0;entryDy=0;entryPerimeter=0;" edge="1" parent="1">
          <mxGeometry width="50" height="50" relative="1" as="geometry">
            <mxPoint x="448" y="190" as="sourcePoint" />
            <mxPoint x="478.20400000000006" y="190.06200000000007" as="targetPoint" />
          </mxGeometry>
        </mxCell>
        <mxCell id="NGPKJmTEaGrtDhj0HMpX-15" value="" style="endArrow=classic;html=1;rounded=0;strokeColor=#FF8000;entryX=0.636;entryY=0.538;entryDx=0;entryDy=0;entryPerimeter=0;" edge="1" parent="1">
          <mxGeometry width="50" height="50" relative="1" as="geometry">
            <mxPoint x="540" y="192.33" as="sourcePoint" />
            <mxPoint x="570.2040000000001" y="192.39200000000008" as="targetPoint" />
          </mxGeometry>
        </mxCell>
        <mxCell id="NGPKJmTEaGrtDhj0HMpX-16" value="" style="endArrow=classic;html=1;rounded=0;strokeColor=#FF8000;" edge="1" parent="1">
          <mxGeometry width="50" height="50" relative="1" as="geometry">
            <mxPoint x="591" y="142" as="sourcePoint" />
            <mxPoint x="591" y="167" as="targetPoint" />
          </mxGeometry>
        </mxCell>
        <mxCell id="NGPKJmTEaGrtDhj0HMpX-18" value="" style="endArrow=classic;html=1;rounded=0;strokeColor=#FF8000;" edge="1" parent="1">
          <mxGeometry width="50" height="50" relative="1" as="geometry">
            <mxPoint x="592" y="189" as="sourcePoint" />
            <mxPoint x="592" y="214" as="targetPoint" />
          </mxGeometry>
        </mxCell>
      </root>
    </mxGraphModel>
  </diagram>
</mxfile>
